<svg xmlns="http://www.w3.org/2000/svg"  viewBox="0 0 48 48" width="96px" height="96px"><path d="M 24 3.5957031 C 23.256423 3.5956569 22.51369 3.8749814 21.955078 4.4335938 L 17.738281 8.6503906 A 1.50015 1.50015 0 0 0 17.128906 9.6054688 A 1.50015 1.50015 0 0 0 17.121094 9.6582031 A 1.50015 1.50015 0 0 0 17.771484 11.164062 A 1.50015 1.50015 0 0 0 17.779297 11.169922 L 21.177734 14.570312 A 2.91 2.91 0 0 0 22.5 17.763672 L 22.5 30.240234 A 2.91 2.91 0 0 0 24 35.640625 A 2.91 2.91 0 0 0 25.5 30.236328 L 25.5 18.892578 L 29.908203 23.300781 A 2.91 2.91 0 0 0 32.730469 26.910156 A 2.91 2.91 0 0 0 32.730469 21.091797 A 2.91 2.91 0 0 0 32.03125 21.179688 L 26.822266 15.972656 A 2.91 2.91 0 0 0 24 12.361328 A 2.91 2.91 0 0 0 23.300781 12.451172 L 20.740234 9.890625 L 24 6.6308594 L 41.371094 24 L 32.068359 33.302734 A 1.50015 1.50015 0 1 0 34.189453 35.423828 L 43.566406 26.046875 L 43.568359 26.044922 C 44.685232 24.927962 44.68494 23.071659 43.568359 21.955078 L 26.044922 4.4335938 C 25.486547 3.8741902 24.743577 3.5957493 24 3.5957031 z M 14.480469 12.484375 A 1.50015 1.50015 0 0 0 13.449219 12.9375 L 4.4316406 21.957031 C 3.3147682 23.073991 3.3150602 24.930295 4.4316406 26.046875 L 21.955078 43.568359 A 1.50015 1.50015 0 0 0 21.955078 43.570312 C 23.072829 44.686008 24.927171 44.686008 26.044922 43.570312 A 1.50015 1.50015 0 0 0 26.044922 43.568359 L 29.976562 39.636719 A 1.50015 1.50015 0 1 0 27.855469 37.515625 L 24 41.371094 L 6.6289062 24.001953 L 15.570312 15.060547 A 1.50015 1.50015 0 0 0 14.480469 12.484375 z"/></svg>